<svg xmlns="http://www.w3.org/2000/svg" width="160" height="160" viewBox="0 0 160 160" fill="none">
  <defs>
    <linearGradient id="g" x1="0" y1="0" x2="160" y2="160" gradientUnits="userSpaceOnUse">
      <stop stop-color="#2563eb"/>
      <stop offset="1" stop-color="#7c3aed"/>
    </linearGradient>
  </defs>
  <rect rx="32" width="160" height="160" fill="url(#g)"/>
  <path d="M48 118V42h22.4c8.32 0 14.72 1.376 19.2 4.128 4.48 2.688 6.72 6.656 6.72 11.904 0 3.712-1.024 6.88-3.072 9.504-2.048 2.56-4.928 4.416-8.64 5.568 4.608 1.024 8.16 3.04 10.656 6.048 2.56 2.944 3.84 6.624 3.84 11.04 0 5.632-2.112 10.08-6.336 13.344C88.544 106.368 82.4 108 74.272 108H48zm14.4-39.04v23.488h11.456c4.096 0 7.2-.832 9.312-2.496 2.176-1.664 3.264-4.032 3.264-7.104 0-6.272-4.096-9.408-12.288-9.408H62.4zm0-10.944h10.304c3.776 0 6.656-.672 8.64-2.016 2.048-1.408 3.072-3.424 3.072-6.048 0-2.496-.96-4.416-2.88-5.76-1.856-1.408-4.672-2.112-8.448-2.112H62.4v15.936z" fill="#fff"/>
  <text x="50%" y="148" text-anchor="middle" font-family="Arial, Helvetica, sans-serif" font-size="20" fill="#ffffff" opacity="0.85">AI</text>
</svg>